<?xml version="1.0" standalone="no"?>
<!DOCTYPE svg PUBLIC "-//W3C//DTD SVG 1.1//EN"
"http://www.w3.org/Graphics/SVG/1.1/DTD/svg11.dtd">

<svg width="595" height="405" view_box="0 0 595 405"
xmlns="http://www.w3.org/2000/svg"
xmlns:link="http://www.w3.org/1999/xlink">\n\n<desc>Généré par Mocodo 2.3.7 le Tue, 01 Feb 2022 02:36:32</desc>

<rect id="frame" x="0" y="0" width="595" height="405" fill="#f7f7f7" stroke="none" stroke-width="0"/>

<!-- Association AJOUTE MODIFIE OU SUPPRIME -->
<line x1="517" y1="51" x2="298" y2="186" stroke="#d6604d" stroke-width="2"/>
<text x="449.10441745" y="110" fill="#2166ac" font-family="Verdana" font-size="12">1,N</text>
<line x1="85" y1="51" x2="298" y2="186" stroke="#d6604d" stroke-width="2"/>
<text x="151" y="86.5458782363" fill="#2166ac" font-family="Verdana" font-size="12">1,1</text>
<line x1="85" y1="186" x2="298" y2="186" stroke="#d6604d" stroke-width="2"/>
<text x="166" y="178.0" fill="#2166ac" font-family="Verdana" font-size="12">1,N</text>
<line x1="517" y1="279" x2="298" y2="186" stroke="#d6604d" stroke-width="2"/>
<text x="442" y="272.290032941" fill="#2166ac" font-family="Verdana" font-size="12">1,N</text>
<g id="association-AJOUTE MODIFIE OU SUPPRIME">
	<path d="M 389 161 a 14 14 90 0 1 14 14 V 186 h -210 V 175 a 14 14 90 0 1 14 -14" fill="#f4a582" stroke="#f4a582" stroke-width="0"/>
	<path d="M 403 186.0 v 11 a 14 14 90 0 1 -14 14 H 207 a 14 14 90 0 1 -14 -14 V 186.0 H 210" fill="#fddbc7" stroke="#fddbc7" stroke-width="0"/>
	<rect x="193" y="161" width="210" height="50" fill="none" rx="14" stroke="#d6604d" stroke-width="2"/>
	<line x1="193" y1="186" x2="403" y2="186" stroke="#d6604d" stroke-width="1"/>
	<text x="200" y="178.7" fill="#000000" font-family="Verdana" font-size="12">AJOUTE MODIFIE OU SUPPRIME</text>
</g>

<!-- Association GERE LES AUTRES COMPTES ADMIN -->
<line x1="85" y1="51" x2="298" y2="51" stroke="#d6604d" stroke-width="2"/>
<text x="151" y="43.0" fill="#2166ac" font-family="Verdana" font-size="12">1,1</text>
<line x1="517" y1="51" x2="298" y2="51" stroke="#d6604d" stroke-width="2"/>
<text x="421" y="43.0" fill="#2166ac" font-family="Verdana" font-size="12">0,N</text>
<g id="association-GERE LES AUTRES COMPTES ADMIN">
	<path d="M 402 26 a 14 14 90 0 1 14 14 V 51 h -236 V 40 a 14 14 90 0 1 14 -14" fill="#f4a582" stroke="#f4a582" stroke-width="0"/>
	<path d="M 416 51.0 v 11 a 14 14 90 0 1 -14 14 H 194 a 14 14 90 0 1 -14 -14 V 51.0 H 236" fill="#fddbc7" stroke="#fddbc7" stroke-width="0"/>
	<rect x="180" y="26" width="236" height="50" fill="none" rx="14" stroke="#d6604d" stroke-width="2"/>
	<line x1="180" y1="51" x2="416" y2="51" stroke="#d6604d" stroke-width="1"/>
	<text x="187" y="43.7" fill="#000000" font-family="Verdana" font-size="12">GERE LES AUTRES COMPTES ADMIN</text>
</g>

<!-- Association EST L'AUTEUR DE -->
<line x1="517" y1="279" x2="85" y2="371" stroke="#d6604d" stroke-width="2"/>
<text x="442" y="282.850145247" fill="#2166ac" font-family="Verdana" font-size="12">1,N</text>
<line x1="85" y1="186" x2="85" y2="371" stroke="#d6604d" stroke-width="2"/>
<text x="58.0" y="271" fill="#2166ac" font-family="Verdana" font-size="12">0,N</text>
<g id="association-EST L'AUTEUR DE">
	<path d="M 132 346 a 14 14 90 0 1 14 14 V 371 h -122 V 360 a 14 14 90 0 1 14 -14" fill="#f4a582" stroke="#f4a582" stroke-width="0"/>
	<path d="M 146 371.0 v 11 a 14 14 90 0 1 -14 14 H 38 a 14 14 90 0 1 -14 -14 V 371.0 H 122" fill="#fddbc7" stroke="#fddbc7" stroke-width="0"/>
	<rect x="24" y="346" width="122" height="50" fill="none" rx="14" stroke="#d6604d" stroke-width="2"/>
	<line x1="24" y1="371" x2="146" y2="371" stroke="#d6604d" stroke-width="1"/>
	<text x="31" y="363.7" fill="#000000" font-family="Verdana" font-size="12">EST L'AUTEUR DE</text>
</g>

<!-- Association CONSULTE -->
<line x1="85" y1="186" x2="517" y2="371" stroke="#d6604d" stroke-width="2"/>
<text x="166" y="213.900831084" fill="#2166ac" font-family="Verdana" font-size="12">0,N</text>
<line x1="298" y1="371" x2="517" y2="371" stroke="#d6604d" stroke-width="2"/>
<text x="344" y="388.0" fill="#2166ac" font-family="Verdana" font-size="12">0,N</text>
<g id="association-CONSULTE">
	<path d="M 544 346 a 14 14 90 0 1 14 14 V 371 h -82 V 360 a 14 14 90 0 1 14 -14" fill="#f4a582" stroke="#f4a582" stroke-width="0"/>
	<path d="M 558 371.0 v 11 a 14 14 90 0 1 -14 14 H 490 a 14 14 90 0 1 -14 -14 V 371.0 H 82" fill="#fddbc7" stroke="#fddbc7" stroke-width="0"/>
	<rect x="476" y="346" width="82" height="50" fill="none" rx="14" stroke="#d6604d" stroke-width="2"/>
	<line x1="476" y1="371" x2="558" y2="371" stroke="#d6604d" stroke-width="1"/>
	<text x="483" y="363.7" fill="#000000" font-family="Verdana" font-size="12">CONSULTE</text>
</g>

<!-- Entity CHEF -->
<g id="entity-CHEF">
	<g id="frame-CHEF">
		<rect x="469" y="237" width="96" height="25" fill="#92c5de" stroke="#92c5de" stroke-width="0"/>
		<rect x="469" y="262.0" width="96" height="59" fill="#d1e5f0" stroke="#d1e5f0" stroke-width="0"/>
		<rect x="469" y="237" width="96" height="84" fill="none" stroke="#4393c3" stroke-width="2"/>
		<line x1="469" y1="262" x2="565" y2="262" stroke="#4393c3" stroke-width="1"/>
	</g>
	<text x="500" y="254.7" fill="#000000" font-family="Verdana" font-size="12">CHEF</text>
	<text x="474" y="279.8" fill="#000000" font-family="Verdana" font-size="12">CHEFID</text>
	<line x1="474" y1="282" x2="521" y2="282" stroke="#000000" stroke-width="1"/>
	<text x="474" y="296.8" fill="#000000" font-family="Verdana" font-size="12">NOMCHEF</text>
	<text x="474" y="313.8" fill="#000000" font-family="Verdana" font-size="12">PRENOMCHEF</text>
</g>

<!-- Entity ADMIN SECONDAIRE -->
<g id="entity-ADMIN SECONDAIRE">
	<g id="frame-ADMIN SECONDAIRE">
		<rect x="448" y="9" width="138" height="25" fill="#92c5de" stroke="#92c5de" stroke-width="0"/>
		<rect x="448" y="34.0" width="138" height="59" fill="#d1e5f0" stroke="#d1e5f0" stroke-width="0"/>
		<rect x="448" y="9" width="138" height="84" fill="none" stroke="#4393c3" stroke-width="2"/>
		<line x1="448" y1="34" x2="586" y2="34" stroke="#4393c3" stroke-width="1"/>
	</g>
	<text x="453" y="26.7" fill="#000000" font-family="Verdana" font-size="12">ADMIN SECONDAIRE</text>
	<text x="453" y="51.8" fill="#000000" font-family="Verdana" font-size="12">USERID</text>
	<line x1="453" y1="54" x2="501" y2="54" stroke="#000000" stroke-width="1"/>
	<text x="453" y="68.8" fill="#000000" font-family="Verdana" font-size="12">PSEUDO</text>
	<text x="453" y="85.8" fill="#000000" font-family="Verdana" font-size="12">PASSWORD</text>
</g>

<!-- Entity RECETTE -->
<g id="entity-RECETTE">
	<g id="frame-RECETTE">
		<rect x="9" y="118" width="152" height="25" fill="#92c5de" stroke="#92c5de" stroke-width="0"/>
		<rect x="9" y="143.0" width="152" height="111" fill="#d1e5f0" stroke="#d1e5f0" stroke-width="0"/>
		<rect x="9" y="118" width="152" height="136" fill="none" stroke="#4393c3" stroke-width="2"/>
		<line x1="9" y1="143" x2="161" y2="143" stroke="#4393c3" stroke-width="1"/>
	</g>
	<text x="57" y="135.7" fill="#000000" font-family="Verdana" font-size="12">RECETTE</text>
	<text x="14" y="160.7" fill="#000000" font-family="Verdana" font-size="12">RECETTEID</text>
	<line x1="14" y1="163" x2="84" y2="163" stroke="#000000" stroke-width="1"/>
	<text x="14" y="177.7" fill="#000000" font-family="Verdana" font-size="12">INGREDIENTSRECETTE</text>
	<text x="14" y="194.8" fill="#000000" font-family="Verdana" font-size="12">DUREERECETTE</text>
	<text x="14" y="211.8" fill="#000000" font-family="Verdana" font-size="12">COUTRECETTE</text>
	<text x="14" y="228.8" fill="#000000" font-family="Verdana" font-size="12">CHEFRECETTE</text>
	<text x="14" y="245.8" fill="#000000" font-family="Verdana" font-size="12">DESCRIPTIONRECETTE</text>
</g>

<!-- Entity ADMIN PRINCIPAL -->
<g id="entity-ADMIN PRINCIPAL">
	<g id="frame-ADMIN PRINCIPAL">
		<rect x="24" y="9" width="122" height="25" fill="#92c5de" stroke="#92c5de" stroke-width="0"/>
		<rect x="24" y="34.0" width="122" height="59" fill="#d1e5f0" stroke="#d1e5f0" stroke-width="0"/>
		<rect x="24" y="9" width="122" height="84" fill="none" stroke="#4393c3" stroke-width="2"/>
		<line x1="24" y1="34" x2="146" y2="34" stroke="#4393c3" stroke-width="1"/>
	</g>
	<text x="29" y="26.7" fill="#000000" font-family="Verdana" font-size="12">ADMIN PRINCIPAL</text>
	<text x="29" y="51.8" fill="#000000" font-family="Verdana" font-size="12">USERID</text>
	<line x1="29" y1="54" x2="77" y2="54" stroke="#000000" stroke-width="1"/>
	<text x="29" y="68.8" fill="#000000" font-family="Verdana" font-size="12">PSEUDO</text>
	<text x="29" y="85.8" fill="#000000" font-family="Verdana" font-size="12">PASSWORD</text>
</g>

<!-- Entity VISITEUR -->
<g id="entity-VISITEUR">
	<g id="frame-VISITEUR">
		<rect x="257" y="346" width="82" height="25" fill="#92c5de" stroke="#92c5de" stroke-width="0"/>
		<rect x="257" y="371.0" width="82" height="25" fill="#d1e5f0" stroke="#d1e5f0" stroke-width="0"/>
		<rect x="257" y="346" width="82" height="50" fill="none" stroke="#4393c3" stroke-width="2"/>
		<line x1="257" y1="371" x2="339" y2="371" stroke="#4393c3" stroke-width="1"/>
	</g>
	<text x="268" y="363.7" fill="#000000" font-family="Verdana" font-size="12">VISITEUR</text>
	<text x="262" y="388.8" fill="#000000" font-family="Verdana" font-size="12">VISITEURIP</text>
	<line x1="262" y1="391" x2="334" y2="391" stroke="#000000" stroke-width="1"/>
</g>
</svg>